{"title":"Dallas 2012 S01E03 720p WEB-DL DD5.1 H.264-CtrlHD [PublicHD]","uid":7377370,"size":1425328364,"categoryP":"video","categoryS":"hd___tv_shows","magnet":"?xt=urn:btih:4eec8e815fcf6c0d39312b68720b387e0b5d050d&amp;dn=Dallas+2012+S01E03+720p+WEB-DL+DD5.1+H.264-CtrlHD+%5BPublicHD%5D&amp;tr=udp%3A%2F%2Ftracker.openbittorrent.com%3A80&amp;tr=udp%3A%2F%2Fopen.demonii.com%3A1337&amp;tr=udp%3A%2F%2Ftracker.coppersurfer.tk%3A6969&amp;tr=udp%3A%2F%2Fexodus.desync.com%3A6969","seeders":0,"leechers":1,"uploader":"DibyaTPB","files":3,"time":1340396128,"description":"PublicHD - High-Definition Bittorrent Community \n   \n &lt;a href=&quot; http://publichd.eu/&quot; rel=&quot;nofollow&quot; target=&quot;_NEW&quot;&gt; http://publichd.eu/&lt;/a&gt;\n\n-----------------------------------------------------\n\nVideo\nID : 1\nFormat : AVC\nFormat/Info : Advanced Video Codec\nFormat profile : &lt;a class=&quot;__cf_email__&quot; href=&quot;/cdn-cgi/l/email-protection&quot; data-cfemail=&quot;d69ebfb1be969ae5f8e7&quot;&gt;[email&amp;#160;protected]&lt;/a&gt;&lt;script cf-hash='f9e31' type=&quot;text/javascript&quot;&gt;\n/* &lt;![CDATA[ */!function(){try{var t=&quot;currentScript&quot;in document?document.currentScript:function(){for(var t=document.getElementsByTagName(&quot;script&quot;),e=t.length;e--;)if(t[e].getAttribute(&quot;cf-hash&quot;))return t[e]}();if(t&amp;&amp;t.previousSibling){var e,r,n,i,c=t.previousSibling,a=c.getAttribute(&quot;data-cfemail&quot;);if(a){for(e=&quot;&quot;,r=parseInt(a.substr(0,2),16),n=2;a.length-n;n+=2)i=parseInt(a.substr(n,2),16)^r,e+=String.fromCharCode(i);e=document.createTextNode(e),c.parentNode.replaceChild(e,c)}}}catch(u){}}();/* ]]&gt; */&lt;/script&gt;\nFormat settings, CABAC : No\nFormat settings, ReFrames : 2 frames\nCodec ID : V_MPEG4/ISO/AVC\nDuration : 42mn 48s\nBit rate : 3 931 Kbps\nWidth : 1 280 pixels\nHeight : 720 pixels\nDisplay aspect ratio : 16:9\nFrame rate : 23.976 fps\nColor space : YUV\nChroma subsampling : 4:2:0\nBit depth : 8 bits\nScan type : Progressive\nBits/(Pixel*Frame) : 0.178\nStream size : 1.18 GiB (89%)\nLanguage : English\nDefault : Yes\nForced : No\nColor primaries : BT.709-5, BT.1361, IEC 61966-2-4, SMPTE RP177\nTransfer characteristics : BT.709-5, BT.1361\nMatrix coefficients : BT.709-5, BT.1361, IEC 61966-2-4 709, SMPTE RP177\n\nAudio\nID : 2\nFormat : AC-3\nFormat/Info : Audio Coding 3\nMode extension : CM (complete main)\nFormat settings, Endianness : Big\nCodec ID : A_AC3\nDuration : 42mn 48s\nBit rate mode : Constant\nBit rate : 384 Kbps\nChannel(s) : 6 channels\nChannel positions : Front: L C R, Side: L R, LFE\nSampling rate : 48.0 KHz\nBit depth : 16 bits\nCompression mode : Lossy\nStream size : 118 MiB (9%)\nLanguage : English\nDefault : Yes\nForced : No","torrent":{"xt":"urn:btih:4eec8e815fcf6c0d39312b68720b387e0b5d050d","amp;dn":"Dallas+2012+S01E03+720p+WEB-DL+DD5.1+H.264-CtrlHD+%5BPublicHD%5D","amp;tr":["udp%3A%2F%2Ftracker.openbittorrent.com%3A80","udp%3A%2F%2Fopen.demonii.com%3A1337","udp%3A%2F%2Ftracker.coppersurfer.tk%3A6969","udp%3A%2F%2Fexodus.desync.com%3A6969"],"infoHash":"4eec8e815fcf6c0d39312b68720b387e0b5d050d","infoHashBuffer":{"type":"Buffer","data":[78,236,142,129,95,207,108,13,57,49,43,104,114,11,56,126,11,93,5,13]},"announce":[],"urlList":[]}}